<?xml version="1.0" encoding="utf-8"?>
<!-- Generator: Adobe Illustrator 18.1.1, SVG Export Plug-In . SVG Version: 6.00 Build 0)  -->
<svg version="1.1" id="Layer_1" xmlns="http://www.w3.org/2000/svg" xmlns:xlink="http://www.w3.org/1999/xlink" x="0px" y="0px"
	 viewBox="0 0 223.8 89.7" enable-background="new 0 0 223.8 89.7" xml:space="preserve">
<g>
	<g>
		<path d="M96.6,32c-2.4,3.5-5.7,5.2-9.9,5.2c-3.3,0-6.1-1.1-8.5-3.5c-2.4-2.3-3.5-5.1-3.5-8.4c0-3.3,1.1-6.1,3.5-8.4
			c2.4-2.3,5.1-3.5,8.5-3.5c1.9,0,3.8,0.4,5.5,1.3c1.7,0.9,3.2,2.1,4.3,3.7l0.3,0.4h5.5l-0.6-1.4c-0.8-1.9-2.3-3.7-4.3-5.3
			c-3.2-2.5-6.8-3.8-10.8-3.8c-4.7,0-8.8,1.6-12,4.9c-3.3,3.2-4.9,7.3-4.9,12c0,4.8,1.6,8.8,4.9,12.1c3.2,3.3,7.3,4.9,12.1,4.9
			c3.2,0,6.2-0.8,8.9-2.5c2.7-1.6,4.8-3.9,6.3-6.7l0.7-1.4h-5.6L96.6,32z"/>
		<path d="M122.8,29.8c0,2.1-0.5,3.9-1.6,5.3c-1.2,1.5-2.7,2.2-4.8,2.2c-2.1,0-3.7-0.8-4.8-2.3c-1.1-1.4-1.6-3.3-1.6-5.5V8.8h-5.1
			V30c0,3.5,1,6.4,3.1,8.6c2.1,2.4,5,3.6,8.5,3.6c3.5,0,6.3-1.2,8.4-3.6c2-2.2,3.1-5.1,3.1-8.6V8.8h-5.1V29.8z"/>
		<path d="M149.5,24c1.8-1.6,2.6-3.6,2.6-5.9c0-1.5-0.4-3-1.2-4.4c-1.6-2.8-4.5-4.5-8.6-4.8c-0.7-0.1-2.5-0.1-5.3-0.1
			c-1.7,0-3,0-3.8,0l-1,0v32.8h10.3c3.1,0,5.7-0.8,7.7-2.4c2.3-1.8,3.4-4.3,3.4-7.4C153.7,28.3,152.3,25.7,149.5,24z M137.3,26.8
			l5.5,0c1.7-0.1,3,0.4,4.1,1.3c1.1,0.9,1.6,2.2,1.6,3.8c0,1.7-0.6,3-1.9,3.8c-1.2,0.8-2.7,1.2-4.7,1.2h-4.6V26.8z M145.3,21
			c-1,0.6-2.4,1-4.1,1h-3.9v-8.3l4.4,0l0.4,0c1.4,0.1,2.6,0.6,3.5,1.3c0.9,0.7,1.4,1.7,1.4,2.9C147,19.3,146.5,20.3,145.3,21z"/>
		<polygon points="175,13.7 175,8.8 156.1,8.8 156.1,41.6 175,41.6 175,36.8 161.2,36.8 161.2,27.5 174.6,27.5 174.6,22.7 
			161.2,22.7 161.2,13.7 		"/>
	</g>
	<g>
		<path fill="#C4D600" d="M90.9,70.2h-2.1l-12.9-19v19h-2.2V48.6h3l12.1,17.9V48.6h2.2V70.2z"/>
		<path fill="#C4D600" d="M107.2,70.2H95.4V48.6h11.8v2h-9.7v7.8h9.4v2h-9.4v7.9h9.7V70.2z"/>
		<path fill="#C4D600" d="M121.1,50.6h-4.9v19.6H114V50.6h-5v-2h12V50.6z"/>
		<path fill="#C4D600" d="M149.1,48.6l-6.1,21.6H140l-4.7-17.7l-4.7,17.7h-2.9l-6.1-21.6h2.3l5.3,18.7l5.1-18.7h2.1l5.1,18.7
			l5.3-18.7H149.1z"/>
		<path fill="#C4D600" d="M173.5,59.4c0,3.2-1.1,5.8-3.3,8c-2.2,2.2-4.9,3.2-8.1,3.2c-3.1,0-5.8-1.1-8.1-3.2
			c-2.2-2.1-3.4-4.8-3.4-7.9c0-3.1,1.1-5.8,3.3-8c2.2-2.2,4.9-3.3,8-3.3c3.2,0,5.9,1.1,8.1,3.2C172.4,53.6,173.5,56.2,173.5,59.4z
			 M171.3,59.4c0-2.5-0.9-4.6-2.7-6.4c-1.8-1.8-4-2.7-6.5-2.7c-2.6,0-4.7,0.9-6.5,2.7c-1.8,1.8-2.7,3.9-2.7,6.5
			c0,2.6,0.9,4.7,2.7,6.5c1.8,1.8,4,2.6,6.6,2.6c2.6,0,4.8-0.9,6.5-2.7C170.4,64.1,171.3,62,171.3,59.4z"/>
		<path fill="#C4D600" d="M191.7,55.6c0,1.8-0.6,3.4-1.8,4.6c-1.2,1.2-2.7,1.9-4.6,2l6.1,8.1h-2.7l-7.3-9.8h1.3
			c2.1,0,3.6-0.3,4.5-0.8c1.6-0.9,2.4-2.3,2.4-4.1c0-1-0.3-2-0.9-2.8c-0.6-0.9-1.4-1.4-2.3-1.7c-1-0.3-2.6-0.4-4.9-0.4h-1.1
			c0.1,0-0.1,0-0.6,0h-0.5v19.7H177V48.6l7,0c3.2,0,5.5,1.2,6.8,3.5C191.4,53.2,191.7,54.3,191.7,55.6z"/>
		<path fill="#C4D600" d="M209.7,70.2h-2.7l-7.2-9.3c-0.1,0.1-0.1,0.2-0.2,0.2c-1.6,1.9-2.5,3-2.6,3.2c0,0.1-0.1,0.2-0.1,0.2v0.3
			c0-0.2,0-0.1,0,0.3c0,0.4,0,0.7,0,1v4.2h-2.2V48.6h2.2V61l9.9-12.4h2.8l-8.6,10.6L209.7,70.2z"/>
		<path fill="#C4D600" d="M223.8,64.3c0,1.8-0.7,3.3-2,4.5c-1.3,1.2-2.9,1.8-4.7,1.8c-1.8,0-3.3-0.6-4.6-1.7
			c-1.4-1.2-2.1-2.6-2.1-4.4v-0.4h2.4c0.1,1.3,0.5,2.3,1.3,3.2c0.8,0.8,1.8,1.3,3.1,1.3c1.2,0,2.2-0.4,3.1-1.2
			c0.9-0.8,1.3-1.8,1.3-3c0-0.9-0.3-1.7-0.8-2.4c-0.5-0.8-1.2-1.3-2-1.5l-3.8-1.1c-1.1-0.3-2.1-1-2.8-1.9c-0.7-0.9-1.1-2-1.1-3.2
			c0-1.7,0.6-3.1,1.7-4.2c1.2-1.1,2.6-1.6,4.3-1.6c1.7,0,3.1,0.6,4.3,1.7c1.1,1.1,1.7,2.5,1.7,4.2H221c-0.1-1.1-0.5-2-1.2-2.7
			c-0.7-0.7-1.7-1.1-2.8-1.1c-1,0-1.9,0.4-2.6,1.1c-0.7,0.7-1.1,1.6-1.1,2.7c0,0.8,0.2,1.4,0.7,2c0.4,0.6,1,1,1.8,1.2l3.8,1.1
			c1.2,0.4,2.3,1.1,3.1,2.2C223.4,61.8,223.8,63,223.8,64.3z"/>
	</g>
	<polygon fill="#6D6E71" points="0,34.8 31.1,17.7 62.6,34.8 31.1,52.8 	"/>
	<polygon fill="#414042" points="0,34.8 31.1,52.8 31.1,89.7 0,71.3 	"/>
	<polygon points="62.6,34.8 62.6,71.3 31.1,89.7 31.1,52.8 	"/>
	<g>
		<polygon fill="#F4F4F3" points="31,52.8 46.9,61.8 31.1,71.3 15.5,61.8 		"/>
		<polygon fill="#A7A9AB" points="15.5,43.8 31.1,34.8 31.1,52.8 15.5,61.8 		"/>
		<polygon fill="#D1D3D4" points="46.9,43.8 46.9,61.8 31.1,52.8 31.1,34.8 		"/>
	</g>
	<g>
		
			<image overflow="visible" width="171" height="126" xlink:href="6E5791D8.png"  transform="matrix(0.24 0 0 0.24 24.5997 19.4445)">
		</image>
		<g>
			<polygon fill="#251C06" points="57,31.8 48.7,36.8 33.1,27.7 42,23.7 			"/>
		</g>
	</g>
	<polygon fill="#E1EA80" points="32.9,9.3 48.7,0 64.4,9.2 48.7,18.2 	"/>
	<polygon fill="#D3E040" points="32.9,9.3 48.7,18.2 48.7,36.8 32.9,27.6 	"/>
	<polygon fill="#C4D600" points="64.4,9.2 64.4,27.5 48.7,36.8 48.7,18.2 	"/>
</g>
</svg>
